<svg xmlns="http://www.w3.org/2000/svg" viewBox="0 0 512 512" xml:space="preserve">
  <path style="fill:#fff" d="M173.419 90.839H338.58v330.323H173.419z"/>
  <path style="fill:#164fce" d="M173.419 90.839v330.323H45.144c-20.371 0-36.886-16.515-36.886-36.886V127.725c0-20.371 16.515-36.886 36.886-36.886z"/>
  <path style="fill:#ed1f34" d="M503.742 127.725v256.551c0 20.371-16.515 36.886-36.886 36.886H338.581V90.839h128.275c20.371 0 36.886 16.515 36.886 36.886"/>
  <path style="fill:#121b21" d="M468.324 82.581H43.676C19.593 82.581 0 102.173 0 126.257v259.487c0 24.083 19.593 43.675 43.676 43.675h424.648c24.082 0 43.675-19.593 43.675-43.676V126.257c.001-24.084-19.593-43.676-43.675-43.676M16.516 385.743V126.257c0-14.977 12.183-27.16 27.16-27.16h121.485v313.806H43.676c-14.976 0-27.16-12.183-27.16-27.16m478.968 0c0 14.977-12.183 27.16-27.16 27.16H346.839V189.935c0-4.561-3.696-8.258-8.258-8.258s-8.258 3.697-8.258 8.258v222.968H181.677V99.097h148.645v57.806c0 4.561 3.696 8.258 8.258 8.258s8.258-3.697 8.258-8.258V99.097h121.485c14.977 0 27.16 12.183 27.16 27.16z"/>
</svg>
