<svg width="512" height="512" viewBox="0 0 20 20" xmlns="http://www.w3.org/2000/svg">
  <defs>
    <clipPath id="a">
      <polygon points="0,0 20,3.2 0,16.8"/>
    </clipPath>
    <clipPath id="b">
      <polygon points="20,3.2 20,20 0,16.8"/>
    </clipPath>
  </defs>
  <g clip-path="url(#a)">
    <svg xmlns="http://www.w3.org/2000/svg" viewBox="0 0 512 512" xml:space="preserve">
      <path style="fill:#fff" d="M503.742 385.376V126.624c0-19.763-16.022-35.785-35.785-35.785H44.043c-19.763 0-35.785 16.022-35.785 35.785v258.753c0 19.763 16.022 35.785 35.785 35.785h423.914c19.763-.001 35.785-16.022 35.785-35.786"/>
      <path style="fill:#ed1f34" d="M503.742 384.462v1.964c0 19.183-15.552 34.734-34.734 34.734H42.993c-19.183 0-34.735-15.552-34.735-34.734v-1.964zM8.258 311.054h495.484v36.699H8.258zm217.65-73.409h277.834v36.71H225.908zm0-73.398h277.834v36.699H225.908zm0-73.408v36.699h277.834v-6.177c0-16.856-13.665-30.522-30.522-30.522z"/>
      <path style="fill:#164fce" d="M8.258 124.83v149.525h217.65V90.839H42.249c-18.772 0-33.991 15.219-33.991 33.991"/>
      <circle style="fill:#fff" cx="51.6" cy="230.158" r="5.946"/>
      <circle style="fill:#fff" cx="84.342" cy="230.158" r="5.946"/>
      <circle style="fill:#fff" cx="117.077" cy="230.158" r="5.946"/>
      <circle style="fill:#fff" cx="149.823" cy="230.158" r="5.946"/>
      <circle style="fill:#fff" cx="182.569" cy="230.158" r="5.946"/>
      <circle style="fill:#fff" cx="35.229" cy="246.024" r="5.946"/>
      <circle style="fill:#fff" cx="67.97" cy="246.024" r="5.946"/>
      <circle style="fill:#fff" cx="100.715" cy="246.024" r="5.946"/>
      <circle style="fill:#fff" cx="133.45" cy="246.024" r="5.946"/>
      <circle style="fill:#fff" cx="166.196" cy="246.024" r="5.946"/>
      <circle style="fill:#fff" cx="198.942" cy="246.024" r="5.946"/>
      <circle style="fill:#fff" cx="35.229" cy="214.302" r="5.946"/>
      <circle style="fill:#fff" cx="67.97" cy="214.302" r="5.946"/>
      <circle style="fill:#fff" cx="100.715" cy="214.302" r="5.946"/>
      <circle style="fill:#fff" cx="133.45" cy="214.302" r="5.946"/>
      <circle style="fill:#fff" cx="166.196" cy="214.302" r="5.946"/>
      <circle style="fill:#fff" cx="198.942" cy="214.302" r="5.946"/>
      <circle style="fill:#fff" cx="51.6" cy="198.458" r="5.946"/>
      <circle style="fill:#fff" cx="84.342" cy="198.458" r="5.946"/>
      <circle style="fill:#fff" cx="117.077" cy="198.458" r="5.946"/>
      <circle style="fill:#fff" cx="149.823" cy="198.458" r="5.946"/>
      <circle style="fill:#fff" cx="182.569" cy="198.458" r="5.946"/>
      <circle style="fill:#fff" cx="35.229" cy="182.602" r="5.946"/>
      <circle style="fill:#fff" cx="67.97" cy="182.602" r="5.946"/>
      <circle style="fill:#fff" cx="100.715" cy="182.602" r="5.946"/>
      <circle style="fill:#fff" cx="133.45" cy="182.602" r="5.946"/>
      <circle style="fill:#fff" cx="166.196" cy="182.602" r="5.946"/>
      <circle style="fill:#fff" cx="198.942" cy="182.602" r="5.946"/>
      <circle style="fill:#fff" cx="51.6" cy="166.747" r="5.946"/>
      <circle style="fill:#fff" cx="84.342" cy="166.747" r="5.946"/>
      <circle style="fill:#fff" cx="117.077" cy="166.747" r="5.946"/>
      <circle style="fill:#fff" cx="149.823" cy="166.747" r="5.946"/>
      <circle style="fill:#fff" cx="182.569" cy="166.747" r="5.946"/>
      <circle style="fill:#fff" cx="35.229" cy="150.88" r="5.946"/>
      <circle style="fill:#fff" cx="67.97" cy="150.88" r="5.946"/>
      <circle style="fill:#fff" cx="100.715" cy="150.88" r="5.946"/>
      <circle style="fill:#fff" cx="133.45" cy="150.88" r="5.946"/>
      <circle style="fill:#fff" cx="166.196" cy="150.88" r="5.946"/>
      <circle style="fill:#fff" cx="198.942" cy="150.88" r="5.946"/>
      <circle style="fill:#fff" cx="51.6" cy="135.036" r="5.946"/>
      <circle style="fill:#fff" cx="84.342" cy="135.036" r="5.946"/>
      <circle style="fill:#fff" cx="117.077" cy="135.036" r="5.946"/>
      <circle style="fill:#fff" cx="149.823" cy="135.036" r="5.946"/>
      <circle style="fill:#fff" cx="182.569" cy="135.036" r="5.946"/>
      <circle style="fill:#fff" cx="35.229" cy="119.169" r="5.946"/>
      <circle style="fill:#fff" cx="67.97" cy="119.169" r="5.946"/>
      <circle style="fill:#fff" cx="100.715" cy="119.169" r="5.946"/>
      <circle style="fill:#fff" cx="133.45" cy="119.169" r="5.946"/>
      <circle style="fill:#fff" cx="166.196" cy="119.169" r="5.946"/>
      <circle style="fill:#fff" cx="198.942" cy="119.169" r="5.946"/>
      <path style="fill:#121b21" d="M468.324 82.581H43.676C19.593 82.581 0 102.174 0 126.257v259.486c0 24.083 19.593 43.676 43.676 43.676h424.648c24.083 0 43.675-19.594 43.675-43.676V126.257c.001-24.083-19.592-43.676-43.675-43.676M16.516 376.204V356.01h388.129c4.561 0 8.258-3.696 8.258-8.258s-3.697-8.258-8.258-8.258H16.516v-20.183h478.968v20.183h-57.806c-4.561 0-8.258 3.696-8.258 8.258s3.697 8.258 8.258 8.258h57.806v20.194zm280.433-167h198.535v20.183H234.166v-20.183h29.751a8.257 8.257 0 0 0 8.258-8.258 8.257 8.257 0 0 0-8.258-8.258h-29.751v-20.183h261.318v20.183H296.949a8.257 8.257 0 0 0-8.258 8.258 8.257 8.257 0 0 0 8.258 8.258m-62.783-53.215v-20.194h261.318v20.194zm0 89.914h261.318v20.194H234.166zm261.318 36.71v20.183H16.516v-20.183zm-.913-163.334H234.166V99.097h234.159c12.563 0 23.158 8.577 26.246 20.182M43.676 99.097H217.65v167H16.516v-139.84c0-14.977 12.184-27.16 27.16-27.16m424.648 313.806H43.676c-12.564 0-23.159-8.577-26.246-20.183h477.142c-3.089 11.606-13.684 20.183-26.248 20.183"/>
    </svg>
  </g>
  <g clip-path="url(#b)">
    <svg xmlns="http://www.w3.org/2000/svg" viewBox="0 0 512 512" xml:space="preserve">
      <path style="fill:#103b9b" d="M469.058 421.161H42.942c-19.155 0-34.684-15.528-34.684-34.684V125.523c0-19.155 15.528-34.684 34.684-34.684h426.115c19.155 0 34.684 15.528 34.684 34.684v260.954c0 19.155-15.528 34.684-34.683 34.684"/>
      <path style="fill:#fff" d="M467.957 90.839h-44.608L256 202.405 88.65 90.839H39.271c-17.128 0-31.014 13.886-31.014 31.014v22.581L175.607 256 8.259 367.566v18.911c0 19.155 15.528 34.684 34.684 34.684H88.65L256 309.594 423.35 421.16h46.809c18.548 0 33.583-15.035 33.583-33.583v-20.012L336.392 256l167.35-111.566v-17.81c-.001-19.764-16.022-35.785-35.785-35.785"/>
      <path style="fill:#ed1f34" d="M20.817 412.787c6.169 5.219 14.142 8.373 22.856 8.373h18.179l220.945-147.296 208.385 138.923 12.547-26.569.001-.033-221.243-147.844 208.694-139.13c-6.169-5.219-14.142-8.373-22.856-8.373h-18.18L229.214 238.142 20.817 99.211c-7.679 6.496-12.559 16.199-12.559 27.045v.337l220.659 147.461z"/>
      <path style="fill:#121b21" d="M229.214 246.401a8.24 8.24 0 0 1-4.58-1.387L16.237 106.082a8.258 8.258 0 0 1 9.161-13.741l203.816 135.877 216.352-144.25a8.257 8.257 0 1 1 9.161 13.742L233.795 245.013a8.25 8.25 0 0 1-4.581 1.388m274.52 148.051a8.2 8.2 0 0 1-4.58-1.393L277.899 245.207a8.26 8.26 0 0 1 .008-13.737L486.601 92.341a8.258 8.258 0 0 1 9.161 13.742L297.363 238.348 508.33 379.326a8.257 8.257 0 0 1 2.277 11.454 8.25 8.25 0 0 1-6.873 3.672M61.86 429.419a8.259 8.259 0 0 1-4.588-15.131l220.943-147.296a8.26 8.26 0 0 1 9.161 0l208.386 138.923a8.259 8.259 0 0 1-9.161 13.742L282.797 283.79 66.434 428.031a8.2 8.2 0 0 1-4.574 1.388m-41.035-8.373a8.259 8.259 0 0 1-4.588-15.131l197.806-131.87L3.67 133.459a8.257 8.257 0 0 1-2.277-11.454 8.256 8.256 0 0 1 11.453-2.278l220.659 147.461a8.26 8.26 0 0 1-.008 13.737L25.398 419.659a8.2 8.2 0 0 1-4.573 1.387"/>
      <path style="fill:#fff" d="M503.741 211.406H300.593V90.839h-89.186v120.567H8.259v89.187h203.148v120.568h89.186V300.593h203.148z"/>
      <path style="fill:#ed1f34" d="M503.741 232.051H279.948V90.839h-47.896v141.212H8.259v47.897h223.793v141.213h47.896V279.948h223.793z"/>
      <path style="fill:#121b21" d="M468.323 82.581H43.677c-24.083 0-43.676 19.592-43.676 43.676v259.487c0 24.083 19.594 43.676 43.676 43.676h424.646c24.083 0 43.676-19.592 43.676-43.676V126.256c0-24.083-19.593-43.675-43.676-43.675m27.16 43.675v97.536H288.206V99.097h180.117c14.976 0 27.16 12.183 27.16 27.159M43.677 99.097h180.117v124.697H16.517v-97.536c0-14.978 12.183-27.161 27.16-27.161m-27.16 286.645v-97.536h207.277v124.697H43.677c-14.977 0-27.16-12.185-27.16-27.161m451.806 27.161H288.206V288.206h149.471c4.562 0 8.258-3.697 8.258-8.258s-3.696-8.258-8.258-8.258H279.948a8.257 8.257 0 0 0-8.258 8.258v132.955h-31.38V279.948a8.257 8.257 0 0 0-8.258-8.258H16.517v-31.381h215.535a8.257 8.257 0 0 0 8.258-8.258V99.097h31.381v132.955a8.257 8.257 0 0 0 8.258 8.258h215.535v31.381H470.71c-4.562 0-8.258 3.697-8.258 8.258s3.696 8.258 8.258 8.258h24.774v97.536c-.001 14.975-12.185 27.16-27.161 27.16"/>
      <circle/>
    </svg>
  </g>
</svg>
